<svg xmlns="http://www.w3.org/2000/svg" viewBox="0 0 24 24" fill="white">
  <path d="M8.691 2.188C3.891 2.188 0 5.476 0 9.53c0 2.212 1.17 4.203 3.002 5.55a.59.59 0 0 1 .213.665l-.39 1.48c-.019.07-.048.141-.048.213 0 .163.13.295.29.295a.328.328 0 0 0 .186-.059l2.114-1.225a.866.866 0 0 1 .276-.087.833.833 0 0 1 .234.033c.947.247 1.95.39 3.013.39 0-.639.041-1.254.116-1.865-4.266 0-7.705-2.88-7.705-6.458 0-3.574 3.439-6.458 7.705-6.458 4.259 0 7.698 2.884 7.698 6.458 0 .317-.028.627-.067.934 1.372.648 2.524 1.693 3.25 2.98.628-1.476.99-3.083.99-4.773C21.001 5.477 17.11 2.188 12.309 2.188H8.691zm12.517 11.19c-.413 0-.778.066-1.146.173l-.194.03-2.057-1.05a.296.296 0 0 0-.13-.033c-.107 0-.2.07-.23.173l-.509 1.744a.48.48 0 0 0-.023.173c0 .13.105.234.234.234.023 0 .047 0 .07-.006a.55.55 0 0 0 .12-.033l.51-.234c.234-.105.469-.153.703-.153.826 0 1.521.502 1.826 1.205.35.826.153 1.77-.48 2.418-.827.844-2.419 1.337-3.684 1.337-2.1 0-3.806-1.147-3.806-2.547 0-1.406 1.705-2.547 3.806-2.547.352 0 .703.033 1.036.093h.006c.182.033.352-.094.352-.28 0-.152-.117-.275-.269-.287-.386-.08-.792-.127-1.205-.127-2.502 0-4.522 1.418-4.522 3.154 0 1.736 2.02 3.148 4.522 3.148 2.279 0 4.124-1.158 4.691-2.73.257-.716.257-1.51.023-2.213-.357-1.09-1.517-1.942-2.843-1.942z"/>
</svg> 